<?xml version="1.0" standalone="no"?>
<!DOCTYPE svg PUBLIC "-//W3C//DTD SVG 20010904//EN"
 "http://www.w3.org/TR/2001/REC-SVG-20010904/DTD/svg10.dtd">
<svg version="1.0" xmlns="http://www.w3.org/2000/svg"
 width="1800.000000pt" height="1800.000000pt" viewBox="0 0 1800.000000 1800.000000"
 preserveAspectRatio="xMidYMid meet">
<metadata>
Created by potrace 1.11, written by Peter Selinger 2001-2013
</metadata>
<g transform="translate(0.000000,1800.000000) scale(0.100000,-0.100000)"
fill="#000000" stroke="none">
<path d="M10108 17315 c-2 -2 -43 -5 -93 -9 -291 -22 -654 -128 -906 -266 -30
-17 -67 -36 -84 -44 -51 -24 -255 -165 -355 -245 -89 -71 -310 -284 -375 -361
-89 -106 -127 -153 -186 -235 -229 -319 -376 -605 -559 -1090 -117 -311 -238
-700 -284 -915 -3 -14 -10 -43 -15 -65 -5 -22 -12 -51 -15 -65 -2 -14 -18 -92
-35 -175 -16 -82 -32 -168 -36 -190 -3 -22 -12 -78 -19 -125 -8 -47 -17 -107
-21 -133 -4 -27 -8 -56 -10 -65 -3 -20 -12 -88 -20 -152 -5 -46 -12 -98 -20
-160 -2 -19 -7 -60 -10 -90 -3 -30 -8 -71 -10 -90 -6 -50 -18 -168 -30 -300
-3 -36 -8 -81 -10 -100 -3 -19 -7 -69 -10 -110 -3 -41 -7 -91 -10 -110 -2 -19
-7 -73 -10 -120 -4 -47 -8 -101 -10 -120 -2 -19 -6 -78 -10 -130 -4 -52 -8
-111 -10 -130 -2 -19 -6 -84 -10 -145 -4 -60 -9 -121 -10 -135 -2 -14 -3 -41
-4 -60 -1 -31 -8 -41 -53 -75 -71 -54 -228 -181 -272 -220 -6 -5 -45 -39 -86
-75 -103 -89 -457 -443 -564 -565 -73 -82 -154 -181 -333 -405 -7 -8 -37 -49
-67 -90 -31 -41 -61 -81 -67 -88 -13 -16 -258 -382 -306 -457 -235 -373 -497
-881 -684 -1325 -39 -91 -76 -178 -83 -195 -8 -16 -37 -93 -66 -170 -63 -170
-64 -172 -80 -210 -65 -158 -296 -910 -335 -1089 -1 -6 -4 -18 -7 -26 -5 -15
-70 -285 -74 -307 -1 -7 -16 -77 -32 -155 -32 -151 -49 -235 -58 -284 -2 -16
-11 -63 -19 -104 -18 -95 -38 -222 -70 -445 -8 -54 -34 -269 -40 -325 -3 -30
-8 -71 -10 -90 -2 -19 -7 -71 -10 -115 -4 -44 -8 -100 -10 -125 -26 -281 -26
-932 -1 -1080 2 -14 7 -52 10 -85 28 -274 114 -608 219 -855 171 -399 436
-724 745 -913 72 -44 554 -287 569 -287 5 0 40 -30 79 -67 226 -219 446 -345
734 -421 303 -80 719 -57 1055 60 91 31 273 115 355 164 46 27 195 133 246
175 60 51 232 227 290 299 162 202 272 379 402 650 105 219 122 259 214 505
112 303 261 805 354 1200 36 152 54 232 58 258 3 15 7 35 10 45 3 9 7 28 10
42 2 14 12 61 21 105 9 44 19 90 21 103 2 12 6 32 8 45 3 12 9 47 15 77 6 30
13 69 16 85 8 44 35 196 40 225 2 14 16 95 30 180 14 85 28 175 31 200 2 25 7
52 9 60 2 8 7 38 11 65 3 28 7 57 9 65 1 8 6 40 10 70 4 30 9 64 11 75 2 11 6
40 9 65 3 25 10 77 15 115 9 69 17 128 25 195 5 42 24 192 30 240 3 19 7 55
10 80 2 25 7 63 9 85 3 22 8 65 11 95 3 30 10 91 15 135 5 44 12 112 15 150 4
39 8 81 10 95 2 14 6 54 10 90 3 36 8 85 10 110 3 25 7 69 10 98 3 28 7 76 10
105 3 28 7 72 10 97 2 25 7 79 10 120 3 41 8 86 10 100 2 14 7 66 10 115 4 50
8 106 10 125 4 40 12 138 21 255 3 44 7 91 9 105 2 14 7 70 10 125 4 55 8 116
10 135 4 45 16 194 20 245 5 88 17 242 20 280 2 22 7 85 10 140 4 55 9 120 11
145 2 25 6 90 9 145 3 55 7 114 10 130 2 17 7 86 11 154 3 69 8 132 9 140 2 9
4 21 4 27 2 24 316 102 520 129 205 27 353 32 616 20 274 -13 352 -9 468 25
172 49 335 161 439 300 32 43 106 176 107 193 0 4 7 31 16 60 23 76 29 121 29
227 1 160 -20 263 -79 387 -44 93 -83 150 -149 216 -80 79 -103 97 -192 144
-51 27 -90 55 -101 73 -31 48 -112 128 -179 176 -146 104 -332 163 -599 190
-130 13 -540 6 -723 -12 -30 -3 -52 -1 -49 3 3 4 8 44 11 88 4 44 9 91 11 105
2 14 6 52 10 85 3 33 8 74 10 90 2 17 7 57 10 90 4 32 8 66 10 75 1 8 6 40 9
71 4 31 8 65 10 75 2 11 7 42 10 69 4 28 13 86 21 130 8 44 17 100 20 125 12
84 76 382 114 534 50 194 127 437 178 556 8 19 19 44 23 55 42 106 165 351
239 474 128 215 286 402 404 476 56 35 69 39 45 13 -22 -22 -72 -92 -87 -118
-66 -122 -110 -238 -125 -330 -3 -19 -9 -53 -12 -75 -4 -22 -7 -85 -7 -140 0
-219 95 -415 274 -565 63 -52 194 -128 212 -122 5 1 6 -2 2 -7 -6 -11 7 -29
75 -104 108 -119 272 -208 450 -242 158 -31 324 -17 472 38 397 150 755 579
899 1079 15 53 33 123 38 155 6 32 13 69 16 83 10 48 19 186 19 290 0 528
-169 970 -499 1304 -86 86 -251 210 -268 200 -6 -4 -9 -4 -6 0 4 4 -24 37 -60
74 -124 125 -189 176 -326 258 -131 79 -216 118 -353 164 -62 21 -121 45 -130
53 -34 29 -189 125 -257 159 -112 56 -286 116 -415 143 -3 1 -27 5 -55 10 -27
4 -54 9 -60 11 -21 5 -93 14 -160 20 -66 6 -362 13 -367 9z m-2864 -10032 c-6
-83 -15 -189 -19 -213 -2 -14 -6 -54 -10 -90 -11 -119 -25 -241 -30 -280 -2
-14 -7 -52 -10 -85 -4 -33 -15 -130 -26 -215 -28 -224 -29 -232 -34 -260 -2
-14 -7 -47 -10 -75 -5 -44 -10 -79 -31 -220 -2 -16 -6 -48 -9 -70 -3 -22 -7
-51 -10 -65 -3 -14 -8 -45 -11 -70 -8 -58 -8 -61 -33 -215 -25 -150 -39 -228
-82 -450 -17 -88 -33 -171 -35 -185 -3 -14 -7 -32 -9 -40 -2 -8 -7 -31 -10
-50 -3 -19 -8 -42 -10 -50 -2 -8 -7 -31 -10 -50 -3 -19 -10 -51 -15 -70 -5
-19 -11 -46 -13 -60 -3 -14 -10 -43 -15 -65 -6 -22 -30 -119 -53 -215 -72
-307 -199 -750 -244 -855 -7 -16 -29 -73 -50 -125 -41 -102 -108 -241 -149
-305 -19 -30 -26 -35 -26 -20 -1 11 -4 45 -8 75 -15 115 -6 700 13 875 2 22 7
72 10 110 4 39 8 84 10 100 7 59 15 121 20 170 8 62 53 372 59 401 2 12 7 39
10 60 6 34 38 209 50 269 20 101 38 186 46 215 5 19 11 49 14 65 3 17 24 102
46 190 22 88 43 169 45 180 37 167 261 857 324 1000 5 11 32 79 61 150 57 143
54 136 135 315 31 69 71 155 87 193 17 37 32 67 33 67 1 0 1 -17 -1 -37z"/>
<path d="M12994 12252 c-9 -6 -39 -56 -156 -261 -74 -130 -222 -387 -223 -389
-4 -5 -42 -10 -150 -17 -60 -4 -117 -8 -125 -10 -8 -2 -60 -6 -115 -9 -55 -4
-111 -9 -125 -11 -14 -2 -65 -6 -115 -10 -153 -10 -159 -14 -112 -66 18 -19
50 -55 71 -80 34 -37 138 -153 224 -248 13 -14 49 -55 80 -90 32 -35 67 -74
80 -88 12 -13 22 -28 22 -33 0 -6 -22 -101 -49 -212 -108 -448 -124 -519 -114
-529 6 -6 51 10 122 42 62 27 115 48 118 46 2 -3 -6 -44 -18 -92 -17 -68 -19
-89 -9 -95 7 -4 48 8 99 30 47 21 87 36 89 35 2 -2 -4 -32 -13 -67 -9 -34 -18
-70 -20 -78 -2 -8 -10 -41 -18 -73 -13 -51 -14 -87 -1 -87 3 0 197 83 269 115
17 7 59 25 95 40 36 15 79 33 95 41 17 7 77 33 134 58 102 43 105 44 138 28
18 -9 33 -19 33 -24 0 -4 4 -8 9 -8 5 0 133 -79 285 -175 151 -96 282 -175
291 -175 18 0 18 11 5 150 -5 58 -12 134 -15 170 -2 36 -7 85 -10 110 -5 45
-9 87 -21 235 -3 44 -8 82 -9 85 -6 9 7 24 55 60 25 19 50 40 55 46 6 6 48 42
95 80 47 38 87 71 90 74 3 3 43 36 90 75 47 38 94 77 105 86 87 77 99 89 90
97 -6 5 -44 17 -85 26 -63 15 -106 24 -130 31 -3 0 -22 4 -43 8 l-38 8 78 64
c106 89 109 95 36 109 -11 2 -49 11 -86 20 -129 31 -389 90 -442 101 -135 29
-164 39 -175 64 -7 14 -54 134 -106 266 -53 132 -101 254 -108 270 -7 17 -23
56 -36 88 -24 61 -42 70 -64 33 -6 -11 -28 -46 -48 -79 l-38 -60 -20 48 c-11
25 -20 49 -20 51 0 2 -8 23 -19 47 -10 23 -26 61 -36 85 -20 48 -26 54 -41 44z"/>
</g>
</svg>
